<?xml version="1.0" encoding="utf-8"?>
<!-- Generator: Adobe Illustrator 16.0.0, SVG Export Plug-In . SVG Version: 6.00 Build 0)  -->
<!DOCTYPE svg PUBLIC "-//W3C//DTD SVG 1.1//EN" "http://www.w3.org/Graphics/SVG/1.1/DTD/svg11.dtd">
<svg version="1.1" id="Capa_1" xmlns="http://www.w3.org/2000/svg" xmlns:xlink="http://www.w3.org/1999/xlink" x="0px" y="0px"
	 width="841.89px" height="595.28px" viewBox="0 0 841.89 595.28" enable-background="new 0 0 841.89 595.28" xml:space="preserve">
<g>
	<defs>
		<rect id="SVGID_1_" y="336.453" width="841.89" height="100.153"/>
	</defs>
	<clipPath id="SVGID_2_">
		<use xlink:href="#SVGID_1_"  overflow="visible"/>
	</clipPath>
	<g clip-path="url(#SVGID_2_)">
		<path stroke="#000000" d="M840.941,415.078c0,0,5.27-20.349-9.034-24.413c0,0-18.068-7.55-27.103-10.452
			c0,0-9.035-1.16-15.059-5.227c0,0-6.775,2.904-18.82-2.322c0,0-6.775-5.226-18.068-6.388c0,0-1.507-7.549-18.821-8.711
			c0,0-7.696-9.327-14.634-11.68c-1.181-0.4-2.339-0.599-3.435-0.515c-7.53,0.582-15.81,0.543-17.316-0.018
			c-1.507-0.562,1.507,0.561,1.507,0.561s-13.552-7.282-15.811-0.719l-3.765,4.822c0,0-8.28,3.482-14.304,4.646l-20.327,6.388
			l-9.786,9.872c0,0,0,5.236-12.047,7.843c0,0-7.528,21.189-27.856,11.899c0,0-9.789-6.388-21.078-6.388
			c0,0-15.059,0.582-24.846-1.742c-9.789-2.322-4.637,0-4.637,0s-18.701-4.634-26.232-3.77c0,0-20.324-7.843-28.605-9.585
			c0,0-3.014,4.646-16.564-2.904l-13.553,0.58c0,0-15.809,2.324-22.586-2.903c0,0-21.83,2.903-26.348-1.741
			c0,0-13.553,5.227-22.586,5.805c0,0-32.373,0-48.182-2.32l-30.869-4.646c0,0-18.068-4.064-27.102,4.646
			c0,0-10.541,4.645-16.563,5.227l-20.328,2.903v41.252H840.941z"/>
		<path d="M-347.572,415.078c0,0-5.27-20.349,9.034-24.413c0,0,18.068-7.55,27.103-10.452c0,0,9.035-1.16,15.059-5.227
			c0,0,6.775,2.904,18.82-2.322c0,0,6.775-5.226,18.068-6.388c0,0,1.507-7.549,18.821-8.711c0,0,7.696-9.327,14.634-11.68
			c1.181-0.4,2.339-0.599,3.435-0.515c7.53,0.582,15.81,0.543,17.316-0.018c1.507-0.562-1.507,0.561-1.507,0.561
			s13.552-7.282,15.811-0.719l3.765,4.822c0,0,8.28,3.482,14.304,4.646l20.327,6.388l9.786,9.872c0,0,0,5.236,12.047,7.843
			c0,0,7.528,21.189,27.856,11.899c0,0,9.789-6.388,21.078-6.388c0,0,15.059,0.582,24.846-1.742c9.789-2.322,4.637,0,4.637,0
			s18.701-4.634,26.232-3.77c0,0,20.324-7.843,28.605-9.585c0,0,3.014,4.646,16.564-2.904l13.553,0.58
			c0,0,15.809,2.324,22.586-2.903c0,0,21.83,2.903,26.348-1.741c0,0,13.553,5.227,22.586,5.805c0,0,32.373,0,48.182-2.32
			l30.869-4.646c0,0,18.068-4.064,27.102,4.646c0,0,10.541,4.645,16.563,5.227l20.328,2.903v41.252H-347.572z"/>
	</g>
</g>
</svg>
