<?xml version="1.0" encoding="utf-8"?>
<!-- Generator: Adobe Illustrator 16.0.0, SVG Export Plug-In . SVG Version: 6.00 Build 0)  -->
<!DOCTYPE svg PUBLIC "-//W3C//DTD SVG 1.1//EN" "http://www.w3.org/Graphics/SVG/1.1/DTD/svg11.dtd">
<svg version="1.1" id="Capa_1" xmlns="http://www.w3.org/2000/svg" xmlns:xlink="http://www.w3.org/1999/xlink" x="0px" y="0px"
	 width="850.391px" height="70.871px" viewBox="0 0 850.391 70.871" enable-background="new 0 0 850.391 70.871"
	 xml:space="preserve">
<g>
	<g>
		<defs>
			<rect id="SVGID_1_" x="0" width="850.391" height="72.625"/>
		</defs>
		<clipPath id="SVGID_2_">
			<use xlink:href="#SVGID_1_"  overflow="visible"/>
		</clipPath>
		<g clip-path="url(#SVGID_2_)">
			<path stroke="#000000" d="M599.701,72.625V31.373l-20.532-2.903c-6.084-0.582-16.73-5.227-16.73-5.227
				c-9.126-8.71-27.376-4.646-27.376-4.646l-31.181,4.646c-15.969,2.32-48.668,2.32-48.668,2.32
				c-9.125-0.578-22.814-5.805-22.814-5.805c-4.563,4.644-26.614,1.741-26.614,1.741c-6.846,5.227-22.814,2.903-22.814,2.903
				l-13.69-0.58c-13.686,7.55-16.73,2.904-16.73,2.904c-8.365,1.742-28.894,9.585-28.894,9.585
				c-7.606-0.864-26.497,3.771-26.497,3.771s5.204-2.322-4.684,0c-9.885,2.323-25.097,1.741-25.097,1.741
				c-11.403,0-21.291,6.388-21.291,6.388c-20.534,9.291-28.137-11.898-28.137-11.898c-12.169-2.607-12.169-7.843-12.169-7.843
				l-9.885-9.872l-20.532-6.388c-6.085-1.164-14.449-4.646-14.449-4.646l-3.802-4.822c-2.282-6.563-15.97,0.719-15.97,0.719
				s3.044-1.123,1.521-0.561c-1.521,0.561-9.885,0.6-17.491,0.018c-1.107-0.084-2.277,0.115-3.47,0.515
				c-7.008,2.353-14.781,11.68-14.781,11.68c-17.489,1.162-19.011,8.711-19.011,8.711c-11.407,1.162-18.251,6.388-18.251,6.388
				c-12.167,5.226-19.009,2.322-19.009,2.322C44.566,36.6,35.44,37.76,35.44,37.76C26.313,40.662,8.064,48.21,8.064,48.21
				c-14.449,4.064-9.125,24.414-9.125,24.414H599.701z"/>
			<path d="M598.688,72.625V31.373l20.533-2.903c6.083-0.582,16.73-5.227,16.73-5.227c9.124-8.71,27.375-4.646,27.375-4.646
				l31.181,4.646c15.969,2.32,48.669,2.32,48.669,2.32c9.124-0.578,22.814-5.805,22.814-5.805
				c4.563,4.644,26.614,1.741,26.614,1.741c6.845,5.227,22.814,2.903,22.814,2.903l13.688-0.58
				c13.687,7.55,16.731,2.904,16.731,2.904c8.364,1.742,28.894,9.585,28.894,9.585c7.607-0.864,26.497,3.771,26.497,3.771
				s-5.204-2.322,4.684,0c9.886,2.323,25.097,1.741,25.097,1.741c11.403,0,21.291,6.388,21.291,6.388
				c20.534,9.291,28.138-11.898,28.138-11.898c12.169-2.607,12.169-7.843,12.169-7.843l9.885-9.872l20.531-6.388
				c6.085-1.164,14.449-4.646,14.449-4.646l3.802-4.822c2.282-6.563,15.972,0.719,15.972,0.719s-3.045-1.123-1.521-0.561
				c1.521,0.561,9.884,0.6,17.489,0.018c1.107-0.084,2.277,0.115,3.471,0.515c7.008,2.353,14.781,11.68,14.781,11.68
				c17.488,1.162,19.011,8.711,19.011,8.711c11.407,1.162,18.251,6.388,18.251,6.388c12.166,5.226,19.01,2.322,19.01,2.322
				c6.084,4.067,15.211,5.227,15.211,5.227c9.126,2.901,27.377,10.45,27.377,10.45c14.448,4.064,9.125,24.414,9.125,24.414H598.688z
				"/>
		</g>
	</g>
</g>
</svg>
