<?xml version="1.0" encoding="utf-8"?>
<!-- Generator: Adobe Illustrator 16.0.0, SVG Export Plug-In . SVG Version: 6.00 Build 0)  -->
<!DOCTYPE svg PUBLIC "-//W3C//DTD SVG 1.1//EN" "http://www.w3.org/Graphics/SVG/1.1/DTD/svg11.dtd">
<svg version="1.1" id="Capa_1" xmlns="http://www.w3.org/2000/svg" xmlns:xlink="http://www.w3.org/1999/xlink" x="0px" y="0px"
	 width="255.12px" height="425.2px" viewBox="0 0 255.12 425.2" enable-background="new 0 0 255.12 425.2" xml:space="preserve">
<g>
	<path fill="none" stroke="#201813" stroke-width="0.5" stroke-miterlimit="10" d="M104.453,67.749c0,0-4.375-19.681,57.942-28.427
		c0,0,45.919,5.466,42.64,0c-3.28-5.466,18.586,4.374,18.586,4.374v4.373l12.025-1.093l16.4,5.733l-38.266,5.2l-4.372-5.2h-15.308
		c0,0,1.094,17.227,5.467,15.04c4.373-2.188,32.801,0.192,32.801,0.192L207.777,97.88l-12.027,30.204l-5.059,8.951l-11.544,26.647
		l-23.442-1.563l-3.834-6.09c0,0-7.654,5.466-9.841,2.187s0,0,0,0s-2.187-4.373-2.187-7.653s-15.304-9.84-18.585-9.84
		c-3.278,0-11.427-3.28-11.427-3.28l-11.533-7.653c0,0-22.959,5.466-21.865,15.306l19.679-2.187l13.719,8.747l14.708,6.56
		l9.839,3.28"/>
	<path fill="none" stroke="#201813" stroke-width="0.35" stroke-miterlimit="10" d="M178.215,52.805c0,0-51.489-10.48-79.916,31.065
		l-21.865,28.426v9.839l-6.559,19.68l-7.654,14.213c0,0,2.187,6.56,0,10.933s-16.4,30.613-16.4,30.613v30.84v19.453l-4.373,32.799
		l6.56,47.012l8.749,26.238c0,0,12.024,21.867,14.211,25.146s10.175,14.213,10.175,14.213l7.32,7.654h7.651l8.272,9.838l5.447-5.465
		v-24.055l8.148-19.678l-20.773-2.188l-2.186-6.559l-13.879-19.682v-5.465l-4.708-7.654l9.841-2.186l10.932,5.467l12.625,5.465
		v4.373c0,0,9.24-3.279,12.521,2.189c6.317,1.051,19.918-0.143,33.891,9.838l16.4,10.932c0,0-16.4,14.217-47.012,5.469"/>
	<path fill="none" stroke="#201813" stroke-width="0.5" stroke-miterlimit="10" d="M222.368,56.742c0,0,20.246,4.169,18.06,11.822
		l-18.06,24.053l-8.179,8.059l-8.746,21.46l-9.84,21.866l-12.027,9.456"/>
	<path fill="none" stroke="#201813" stroke-width="0.5" stroke-miterlimit="10" d="M164.221,167.972l-18.086-19.622l-12.134-2.803
		c0,0,25.216,3.737,22.413,0c-2.804-3.737-7.304,26.163-7.304,26.163l4.5,4.672l-10.278,10.279l-0.934,14.949l-8.397,14.018v22.424
		c0,0-4.684,4.672-5.619,7.475c-0.935,2.803-4.671,14.951-4.671,14.951l-13.879,9.344v3.736c0,0-6.678,0-6.678,3.738
		c0,3.736,3.739,6.541,0,9.344c-3.737,2.805,1.452,2.805,1.452,2.805h2.594l-3.892,1.713l6.524,4.545l8.272,11.494l13.715,4.672
		h4.972c0,0,3.736,3.738,6.541,0c2.803-3.738,12.146-7.889,16.818,1.662"/>
	<path fill="none" stroke="#201813" stroke-width="0.5" stroke-miterlimit="10" d="M137.727,198.807
		c0,0-21.264-47.356-56.585-24.294v5.606l-7.915-9.685l-1.842-2.253l5.012-4.499v-10.224l0.038-8.362"/>
	<path fill="none" stroke="#201813" stroke-width="0.5" stroke-miterlimit="10" d="M73.227,170.434
		c1.839,13.675,7.915,17.16,7.915,17.16h6.129l6.539,3.738l10.748,7.475c0,0,1.675-0.935,5.275,0c3.601,0.934,14.814,0,14.814,0
		l8.366,7.475c0,0-2.957-2.025-4.629-13.081l-5.018-9.546l-8.062-4.47h-10.745l-9.813-0.934h-4.672l-8.931,1.869"/>
	<path fill="none" stroke="#201813" stroke-width="0.5" stroke-miterlimit="10" d="M109.832,180.764c0,0-8.647,4.988-3.243,14.545
		c0,0-10.915-6.213-13.714-11.636C92.875,183.673,98.532,180.764,109.832,180.764z"/>
	<path fill="none" stroke="#201813" stroke-width="0.5" stroke-miterlimit="10" d="M109.832,179.184c0,0-1.092-4.299-1.996-7.233
		v7.233c0,0-7.16-7.316-8.777-10.972c0,0,0.345,8.428,2.293,10.667c0,0-4.738-5.596-8.477-12.66l1.87,12.031
		c0,0-7.687-5.797-8.934-9.953l4.262,9.953"/>
	<path fill="none" stroke="#201813" stroke-width="0.35" stroke-miterlimit="10" d="M127.136,191.865c0,0-2.272,7.166-7.664,7.256"
		/>
	<path fill="none" stroke="#201813" stroke-width="0.3" stroke-miterlimit="10" d="M106.784,66.261c0,0-4.373-19.68,57.944-28.426
		c0,0,45.917,5.466,42.639,0c-3.281-5.466,18.586,4.374,18.586,4.374v4.373l12.025-1.093l16.399,5.733l-38.265,5.2l-4.373-5.2
		h-15.306c0,0,1.092,17.228,5.465,15.04c4.373-2.187,32.8,0.192,32.8,0.192l-24.591,29.938l-12.027,30.205l-5.057,8.951
		l-11.546,26.647l-23.441-1.563l-3.836-6.09c0,0-7.65,5.466-9.838,2.187c-2.186-3.28,0,0,0,0s-2.186-4.373-2.186-7.653
		s-15.305-9.84-18.585-9.84c-3.281,0-11.427-3.28-11.427-3.28l-11.533-7.653c0,0-22.959,5.466-21.868,15.306l19.681-2.187
		l13.719,8.747l14.705,6.56l9.84,3.28"/>
	<path fill="none" stroke="#201813" stroke-width="0.5" stroke-miterlimit="10" d="M180.549,51.317c0,0-51.492-10.48-79.916,31.065
		l-21.868,28.426v9.839l-6.56,19.68l-7.651,14.213c0,0,2.187,6.56,0,10.933s-16.4,30.612-16.4,30.612v30.84v19.453l-4.373,32.799
		l6.56,47.01l8.746,26.24c0,0,12.027,21.865,14.213,25.146c2.187,3.279,10.175,14.213,10.175,14.213l7.317,7.652h7.654l8.272,9.84
		l5.447-5.467v-24.051l8.146-19.68l-20.773-2.186l-2.187-6.563l-13.876-19.678v-5.469l-4.71-7.65l9.84-2.188l10.933,5.465
		l12.627,5.469v4.373c0,0,9.24-3.279,12.519,2.186c6.318,1.055,19.917-0.139,33.89,9.84l16.4,10.934c0,0-16.4,14.213-47.01,5.467"/>
	<path fill="none" stroke="#201813" stroke-width="0.3" stroke-miterlimit="10" d="M166.553,166.484l-18.084-19.622l-12.137-2.804
		c0,0,25.217,3.737,22.412,0c-2.802-3.737-7.301,26.164-7.301,26.164l4.499,4.672l-10.278,10.278l-0.936,14.95l-8.396,14.017v22.424
		c0,0-4.684,4.672-5.619,7.477c-0.932,2.801-4.671,14.949-4.671,14.949l-13.876,9.344v3.738c0,0-6.679,0-6.679,3.736
		c0,3.738,3.737,6.543,0,9.344c-3.737,2.803,1.452,2.803,1.452,2.803h2.594l-3.892,1.715l6.524,4.545l8.272,11.494l13.713,4.672
		h4.974c0,0,3.736,3.738,6.539,0c2.805-3.738,12.146-7.889,16.817,1.662"/>
	<path fill="none" stroke="#201813" stroke-width="0.5" stroke-miterlimit="10" d="M170.196,356.201c0,0-55.023-6.307-91.431-37.664
		"/>
	<path fill="none" stroke="#201813" stroke-width="0.5" stroke-miterlimit="10" d="M127.136,201.033c0,0-10.798,14.32-41.325-1.912
		c0,0-10.745-8.934-12.584-19.937"/>
	<path fill="none" stroke="#201813" stroke-width="0.5" stroke-miterlimit="10" d="M193.827,22.945c0,0-16.493-5.462-60.815,0
		c0,0-22.143,0.774-28.455,14.725"/>
	<path fill="none" stroke="#201813" stroke-width="0.5" stroke-miterlimit="10" d="M143.176,32.378c0,0-43.742,13.224-54.423,28.991
		L76.396,78.663L71.385,94.43l-3.993,4.757"/>
	<path fill="none" stroke="#201813" stroke-width="0.5" stroke-miterlimit="10" d="M67.392,107.146c0,0-17.213,30.955-23.611,63.288
		c-6.4,32.334,0,2.268,0,2.268v8.063c0,0-7.925,12.031-8.435,14.729s-3.56,18.465-3.56,18.465"/>
	<path fill="none" stroke="#201813" stroke-width="0.5" stroke-miterlimit="10" d="M38.907,229.709c0,0-38.146,45.791-17.292,97.672
		"/>
	<path fill="none" stroke="#201813" stroke-width="0.5" stroke-miterlimit="10" d="M31.787,226.865c0,0-19.835,15.068-23.904,59.826
		"/>
	<path fill="none" stroke="#201813" stroke-width="0.5" stroke-miterlimit="10" d="M89.262,47.635L71.284,65.783l-3.892,12.37
		c0,0,2.541,6.104,0,8.138c-2.544,2.035-8.138,6.612-8.138,6.612v2.035L49.588,105.1"/>
	<g>
		<path fill="none" stroke="#201813" stroke-width="0.5" stroke-miterlimit="10" d="M193.029,20.946c0,0-16.494-5.462-60.818,0
			c0,0-22.143,0.774-28.454,14.725"/>
		<path fill="none" stroke="#201813" stroke-width="0.5" stroke-miterlimit="10" d="M142.377,30.379
			c0,0-43.743,13.224-54.422,28.991L75.596,76.665l-5.009,15.767l-3.996,4.758"/>
		<path fill="none" stroke="#201813" stroke-width="0.5" stroke-miterlimit="10" d="M66.591,105.147
			c0,0-17.211,30.954-23.611,63.288c-6.397,32.334,0,2.268,0,2.268v8.063c0,0-7.925,12.031-8.432,14.729
			c-0.509,2.697-3.563,18.465-3.563,18.465"/>
		<path fill="none" stroke="#201813" stroke-width="0.5" stroke-miterlimit="10" d="M38.108,227.711
			c0,0-38.146,45.791-17.294,97.672"/>
		<path fill="none" stroke="#201813" stroke-width="0.5" stroke-miterlimit="10" d="M30.986,224.867
			c0,0-19.835,15.066-23.904,59.826"/>
		<path fill="none" stroke="#201813" stroke-width="0.5" stroke-miterlimit="10" d="M88.461,45.637L70.483,63.784l-3.892,12.371
			c0,0,2.543,6.104,0,8.138c-2.544,2.035-8.138,6.612-8.138,6.612v2.034l-9.663,10.163"/>
	</g>
</g>
</svg>
