<?xml version="1.0" encoding="utf-8"?>
<!-- Generator: Adobe Illustrator 16.0.0, SVG Export Plug-In . SVG Version: 6.00 Build 0)  -->
<!DOCTYPE svg PUBLIC "-//W3C//DTD SVG 1.1//EN" "http://www.w3.org/Graphics/SVG/1.1/DTD/svg11.dtd">
<svg version="1.1" id="Capa_1" xmlns="http://www.w3.org/2000/svg" xmlns:xlink="http://www.w3.org/1999/xlink" x="0px" y="0px"
	 width="841.89px" height="595.28px" viewBox="0 0 841.89 595.28" enable-background="new 0 0 841.89 595.28" xml:space="preserve">
<g>
	<g>
		<g>
			<path fill="none" stroke="#FFFFFF" stroke-miterlimit="10" d="M709.175,126.858c-15.294,14.338-25.809-28.967-25.809-28.967
				c1.049-19.41-1.07-31.334-3.193-38.144c-1.747-5.598-3.497-7.738-3.497-7.738c-36.322-21.029-25.809,20.073-25.809,20.073
				l-8.603,25.808l12.425,48.749c0,0,10.517,48.748,14.34,65.953c0,0,9.558,24.854,18.159,34.41c0,0,13.385,92.727-76.467,270.508
				l-19.914,52.771"/>
			<path fill="none" stroke="#FFFFFF" stroke-miterlimit="10" d="M802.849,138.026c0,0-4.78-27.719-21.985-34.411
				c0,0-37.279-42.057-46.837-45.88c0,0-5.431-3.621-53.854,2.013"/>
			<path fill="none" stroke="#FFFFFF" stroke-miterlimit="10" d="M751.206,72.106c23.87,0.988,36.032,25.202,36.032,25.202
				c14.021,11.852,22.301,17.78,22.301,17.78c18.161,12.426,5.734,53.527,5.734,53.527c-18.161,29.63-31.543,117.569-31.543,117.569
				c-0.956,93.674-28.675,231.326-28.675,231.326l-13.545,52.771"/>
			<path fill="none" stroke="#FFFFFF" stroke-width="0.5" stroke-miterlimit="10" d="M649.516,58.542c0,0,10.246-18.969,19.743,0
				c0,0,0.856,15.85-18.392,13.541"/>
			
				<line fill="none" stroke="#FFFFFF" stroke-width="0.5" stroke-miterlimit="10" x1="642.265" y1="97.891" x2="659.948" y2="91.582"/>
			<path fill="none" stroke="#FFFFFF" stroke-width="0.5" stroke-miterlimit="10" d="M643.846,104.095
				c0,0,14.883-3.875,16.103-6.787"/>
			
				<line fill="none" stroke="#FFFFFF" stroke-width="0.5" stroke-miterlimit="10" x1="645.574" y1="110.876" x2="651.897" y2="110.876"/>
			<polyline fill="none" stroke="#FFFFFF" stroke-miterlimit="10" points="692.569,122.402 721.878,129.572 759.661,142.235 
				764.959,142.235 			"/>
			<path fill="none" stroke="#FFFFFF" stroke-miterlimit="10" d="M771.559,110.157l-10.491,7.807l0.352,20.062l7.387,8.782h13.366
				l8.795-8.782v-16.192C788.505,109.17,771.559,110.157,771.559,110.157l-38.983-15.42h-7.035l-27.79-8.782l-14.21-3.501"/>
			
				<line fill="none" stroke="#FFFFFF" stroke-width="0.5" stroke-miterlimit="10" x1="735.037" y1="107.763" x2="762.421" y2="116.957"/>
			<polyline fill="none" stroke="#FFFFFF" stroke-width="0.5" stroke-miterlimit="10" points="697.75,85.955 687.55,94.737 
				717.098,104.095 725.54,94.737 			"/>
			
				<line fill="none" stroke="#FFFFFF" stroke-width="0.5" stroke-miterlimit="10" x1="709.175" y1="122.402" x2="689.79" y2="116.957"/>
			<path fill="none" stroke="#FFFFFF" stroke-width="0.5" stroke-miterlimit="10" d="M721.878,125.351c0,0-6.913-7.656-3.022-17.588
				l13.72-13.026"/>
			<polyline fill="none" stroke="#FFFFFF" stroke-width="0.5" stroke-miterlimit="10" points="721.878,129.572 721.156,110.044 
				737.253,96.587 			"/>
			<path fill="none" stroke="#FFFFFF" stroke-miterlimit="10" d="M642.265,99.321c0,0-4.839-4.444-5.331-9.854
				c-0.2-2.216,0.325-4.594,2.213-6.895c1.886-2.302,5.133-4.526,10.369-6.434"/>
			<path fill="none" stroke="#FFFFFF" stroke-width="0.5" stroke-miterlimit="10" d="M636.895,91.582c0,0-8.792-1.725-6.33-9.129
				c0,0,1.364-2.903,8.582,0.118"/>
			
				<line fill="none" stroke="#FFFFFF" stroke-width="0.5" stroke-miterlimit="10" x1="725.122" y1="56.589" x2="715.691" y2="65.201"/>
			<path fill="none" stroke="#FFFFFF" stroke-width="0.5" stroke-miterlimit="10" d="M739.296,61.212c0,0-9.24,1.526-10.092,3.988"
				/>
			
				<line fill="none" stroke="#FFFFFF" stroke-width="0.5" stroke-miterlimit="10" x1="692.569" y1="76.137" x2="695.103" y2="85.302"/>
			<path fill="none" stroke="#FFFFFF" stroke-width="0.5" stroke-miterlimit="10" d="M709.175,76.137c0,0-2.025,12.787,0,13.427"/>
		</g>
		<path fill="#FFFFFF" d="M626.214,91.458c0,0,5.432-17.845-9.314-21.409c0,0-18.629-6.621-27.944-9.166
			c0,0-9.315-1.018-15.525-4.584c0,0-6.986,2.547-19.405-2.036c0,0-6.985-4.583-18.629-5.603c0,0-1.553-6.619-19.404-7.639
			c0,0-7.937-8.18-15.088-10.242c-1.218-0.352-2.412-0.525-3.541-0.451c-7.765,0.51-16.302,0.476-17.854-0.017
			c-1.554-0.492,1.553,0.492,1.553,0.492s-13.971-6.386-16.3-0.63l-3.882,4.229c0,0-8.537,3.055-14.747,4.074l-20.958,5.602
			l-10.091,8.657c0,0,0,4.592-12.42,6.878c0,0-7.761,18.583-28.72,10.436c0,0-10.093-5.602-21.732-5.602
			c0,0-15.526,0.51-25.617-1.527c-10.093-2.037-4.78,0-4.78,0s-19.282-4.064-27.046-3.307c0,0-20.955-6.878-29.493-8.406
			c0,0-3.107,4.074-17.079-2.547l-13.974,0.51c0,0-16.299,2.037-23.287-2.546c0,0-22.507,2.546-27.165-1.528
			c0,0-13.974,4.584-23.287,5.092c0,0-33.377,0-49.677-2.035l-31.827-4.074c0,0-18.629-3.564-27.942,4.074
			c0,0-10.868,4.072-17.077,4.583L13,55.281v36.177H626.214z"/>
	</g>
	<path d="M626.214,94.137c0,0,5.432-17.845-9.314-21.409c0,0-18.629-6.621-27.944-9.166c0,0-9.315-1.018-15.525-4.584
		c0,0-6.986,2.547-19.405-2.036c0,0-6.985-4.583-18.629-5.603c0,0-1.553-6.619-19.404-7.639c0,0-7.937-8.18-15.088-10.242
		c-1.218-0.352-2.412-0.525-3.541-0.451c-7.765,0.51-16.302,0.476-17.854-0.017c-1.554-0.492,1.553,0.492,1.553,0.492
		s-13.971-6.386-16.3-0.63l-3.882,4.229c0,0-8.537,3.055-14.747,4.074l-20.958,5.602l-10.091,8.657c0,0,0,4.592-12.42,6.878
		c0,0-7.761,18.583-28.72,10.436c0,0-10.093-5.602-21.732-5.602c0,0-15.526,0.51-25.617-1.527c-10.093-2.037-4.78,0-4.78,0
		s-19.282-4.064-27.046-3.307c0,0-20.955-6.878-29.493-8.406c0,0-3.107,4.074-17.079-2.547l-13.974,0.51
		c0,0-16.299,2.037-23.287-2.546c0,0-22.507,2.546-27.165-1.528c0,0-13.974,4.584-23.287,5.092c0,0-33.377,0-49.677-2.035
		l-31.827-4.074c0,0-18.629-3.564-27.942,4.074c0,0-10.868,4.072-17.077,4.583L13,57.96v36.177H626.214z"/>
</g>
</svg>
